Coordinates
version=1
nRows=11
nColumns=36
inDegrees=yes

Units are S.I. units (second, meters, Newtons, ...)
If the header above contains a line with 'inDegrees', this indicates whether rotational values are in degrees (yes) or radians (no).

endheader
time	pelvis_tilt	pelvis_list	pelvis_rotation	pelvis_tx	pelvis_ty	pelvis_tz	hip_flexion_r	hip_adduction_r	hip_rotation_r	knee_angle_r	knee_angle_r_beta	ankle_angle_r	subtalar_angle_r	mtp_angle_r	hip_flexion_l	hip_adduction_l	hip_rotation_l	knee_angle_l	knee_angle_l_beta	ankle_angle_l	subtalar_angle_l	mtp_angle_l	lumbar_extension	lumbar_bending	lumbar_rotation	arm_flex_r	arm_add_r	arm_rot_r	elbow_flex_r	pro_sup_r	arm_flex_l	arm_add_l	arm_rot_l	elbow_flex_l	pro_sup_l
      5.93333330	     -3.84254115	      0.97154934	      1.66810205	     -0.01963740	      0.79521936	      0.09864426	      7.91725733	     -2.56543544	    -14.71753836	      1.40423058	      0.02450845	      2.50085493	      0.49284636	     -7.49999987	     11.22526748	     -8.09951854	    -13.72810949	      8.21300401	      0.14334396	      0.26269376	     -0.38342311	     -7.49999987	     -7.34657082	     -4.93448397	     -5.28326224	     84.10995065	     20.87112660	     66.14858394	    118.62477151	    103.67149215	     62.11483071	     14.79563833	     49.36418798	    141.23197390	     80.11306656
      5.95000000	     -3.61899345	      1.02900331	      1.82135831	     -0.01823821	      0.79512945	      0.09739327	      7.41343112	     -2.61944471	    -14.53776343	      1.17439992	      0.02049715	      2.33452558	      0.37150634	     -7.49999987	     10.67535104	     -7.88213988	    -13.90495882	      7.41474140	      0.12941165	      0.14892116	      0.44939986	     -7.49999987	     -6.95290098	     -4.89195271	     -5.11532300	     84.34510974	     20.55173476	     66.05000946	    118.12472802	     99.96765166	     61.47446997	     15.12393999	     46.79096304	    140.52113295	     76.59521600
      5.96666670	     -3.44580906	      0.98400365	      1.98532682	     -0.01762474	      0.79636655	      0.09673005	      7.01010279	     -2.63426501	    -14.50556681	      1.01324723	      0.01768450	      2.08661760	      0.28720768	     -7.49999987	     10.15536680	     -7.73797074	    -13.69305092	      6.69530805	      0.11685517	     -0.16138736	      0.46536636	     -7.49999987	     -6.42400368	     -4.72467256	     -5.37924911	     84.06153321	     20.37319554	     65.66296015	    117.82006608	    103.11238364	     60.39309512	     14.82957121	     43.82223733	    137.78977766	     78.34013854
      5.98333330	     -3.20375724	      1.06529329	      2.03536557	     -0.01640151	      0.79459875	      0.09624055	      6.51557427	     -2.73440991	    -14.27667298	      0.89296828	      0.01558524	      1.80400012	     -0.10110433	     -7.49999987	      9.42671449	     -7.49293522	    -13.76810628	      5.98178536	      0.10440185	     -0.25765828	      0.74667309	     -7.49999987	     -5.96147005	     -4.77886066	     -5.23561367	     83.81222882	     20.09298944	     65.61245989	    117.62307233	    102.86484779	     59.38279322	     14.78951200	     41.67831698	    135.39787627	     77.46995654
      6.00000000	     -3.02665843	      1.12797711	      2.04003942	     -0.01584841	      0.79545979	      0.09537631	      6.17828305	     -2.83439286	    -14.25808109	      0.75070579	      0.01310229	      1.87415754	      0.05771729	     -7.49999987	      8.76722510	     -7.27013028	    -13.72493721	      5.32243556	      0.09289402	     -0.08354121	      0.97298304	     -7.49999987	     -5.39327068	     -4.76755818	     -4.84589338	     83.55219797	     19.55195192	     65.29733885	    116.95198965	    102.84148212	     58.09652777	     15.39072395	     39.16062950	    134.31773916	     76.32681924
      6.01666670	     -2.81935064	      1.23360445	      1.91332983	     -0.01689307	      0.79607466	      0.09569549	      5.88321493	     -2.93734395	    -14.06853636	      0.64579252	      0.01127121	      1.91698340	      0.04246727	     -7.49999987	      8.10327786	     -7.03653823	    -13.77239185	      4.67177475	      0.08153785	     -0.12856508	      1.07031633	     -7.49999987	     -4.93712487	     -4.87480337	     -4.53614543	     83.31646565	     19.09384213	     64.99528385	    116.44165996	    102.45573777	     57.07683024	     15.58336272	     36.76815509	    131.65581859	     75.67946705
      6.03333330	     -2.73675819	      1.34876415	      1.84458804	     -0.01801136	      0.79488446	      0.09496369	      5.72482035	     -3.09176633	    -13.94785124	      0.56746325	      0.00990410	      1.90340147	     -0.05236125	     -7.49999987	      7.69778377	     -6.77561631	    -13.79166252	      3.95280040	      0.06898938	     -0.22862521	      1.18855528	     -7.49999987	     -4.54414821	     -4.90734112	     -4.37845341	     83.27445962	     18.88518560	     64.85352014	    116.03279443	    102.26135094	     56.64209820	     16.03588750	     35.68738628	    131.30211534	     75.53232453
      6.05000000	     -2.53554447	      1.45941765	      1.65117976	     -0.01829349	      0.79299218	      0.09522929	      5.53905303	     -3.22800913	    -13.67860433	      0.51723848	      0.00902751	      1.88808128	     -0.26254568	     -7.49999987	      7.16684740	     -6.58430939	    -13.88693163	      3.36680234	      0.05876179	     -0.50314984	      1.10839750	     -7.49999987	     -4.21835749	     -4.98643721	     -4.16372710	     83.31871955	     18.71574679	     64.57788999	    115.44910909	     98.50895722	     56.17819582	     16.44986608	     34.48098981	    130.53515973	     74.44271443
      6.06666670	     -2.55045730	      1.54283227	      1.67656137	     -0.01800216	      0.79611403	      0.09423089	      5.51104401	     -3.36119041	    -13.75404257	      0.47542419	      0.00829772	      1.82168543	     -0.17279819	     -7.49999987	      6.93424546	     -6.36182309	    -13.85607934	      2.86583076	      0.05001818	     -0.87407703	      1.08051838	     -7.49999987	     -3.77143682	     -4.96235234	     -4.20717218	     83.08838245	     18.84137549	     64.54735718	    115.29388239	    101.62447568	     55.64235191	     16.67807257	     33.56317029	    129.86545431	     75.54136795
      6.08333330	     -2.43969648	      1.55397902	      1.54665775	     -0.02044261	      0.79541386	      0.09273844	      5.56223706	     -3.47227256	    -13.73142451	      0.52374297	      0.00914104	      1.83467250	     -0.18718643	     -7.49999987	      6.75317299	     -6.29814605	    -13.80439995	      2.87127586	      0.05011322	     -0.85242896	      1.10682500	     -7.49999987	     -3.57047580	     -4.74731546	     -4.35022706	     83.08897743	     18.83684981	     64.53603744	    115.33578470	    101.62446237	     55.64029530	     16.72485107	     33.57343707	    129.81418735	     75.54312698
      6.10000000	     -2.32850436	      1.45978458	      1.60738097	     -0.01937532	      0.79694351	      0.09211108	      5.45526117	     -3.44890361	    -13.51539849	      0.47587188	      0.00830553	      1.68701310	     -0.48656161	     -7.49999987	      6.23960162	     -6.23553456	    -13.43701530	      2.35848199	      0.04116328	     -0.61006199	      1.37636711	     -7.49999987	     -3.26464385	     -4.49671109	     -4.89261351	     82.69860069	     19.13279494	     64.69471480	    115.42651708	    101.62607785	     55.37423469	     16.65002370	     33.64291664	    129.09049985	     75.61403451
